<svg width="1600" height="1600" viewBox="0 0 1600 1600" fill="none" xmlns="http://www.w3.org/2000/svg">
<g clip-path="url(#clip0_3_11)">
<g clip-path="url(#clip1_3_11)">
<path d="M800.031 1600.06C1241.88 1600.06 1600.06 1241.88 1600.06 800.031C1600.06 358.186 1241.88 0 800.031 0C358.186 0 0 358.186 0 800.031C0 1241.88 358.186 1600.06 800.031 1600.06Z" fill="black"/>
<path d="M988.358 369.062L764.831 853.595L606.433 510.266H295.946V557.828H523.616L513.287 580.156L267 1114.05H576.003V1066.48H341.344L576.003 557.828L586.332 580.156L740.957 915.446H576.065V963.008H988.419V915.446H788.706L988.419 482.557L1257.78 1066.48H1170.38V1114.05H1332.06L988.358 369V369.062Z" fill="white"/>
</g>
</g>
<defs>
<clipPath id="clip0_3_11">
<rect width="1600" height="1600" fill="white"/>
</clipPath>
<clipPath id="clip1_3_11">
<rect width="1600" height="1600" fill="white"/>
</clipPath>
</defs>
</svg>
